<?xml version="1.0" ?><svg style="enable-background:new 0 0 48 48;" version="1.1" viewBox="0 0 48 48" xml:space="preserve" xmlns="http://www.w3.org/2000/svg" xmlns:xlink="http://www.w3.org/1999/xlink"><style type="text/css">
	.st0{display:none;}
	.st1{fill:none;stroke:#303030;stroke-width:0.7;stroke-linecap:round;stroke-linejoin:round;stroke-miterlimit:10;}
	.st2{fill:#303030;}
</style><g class="st0" id="Padding__x26__Artboard"/><g id="Icons"><g><g><path class="st1" d="M36.245,24c0,3.26996-1.27997,6.23999-3.37,8.42999c-0.09003-0.5-0.27997-0.98999-0.58002-1.41998     l-1.69-2.47003l-1.69995,2.47003c-0.79004,1.14996-0.88,2.69-0.10004,3.82996c0.08002,0.11005,0.16003,0.22003,0.25,0.31     c-1.53998,0.70001-3.25,1.09003-5.04999,1.09003c-6.77002,0-12.25-5.47998-12.25-12.23999s5.47998-12.23999,12.25-12.23999     C30.76501,11.76001,36.245,17.23999,36.245,24z"/></g><path class="st1" d="M32.875,32.43c0.16,0.83,0.01,1.7-0.48,2.41c-0.46,0.67-1.09,1.09-1.79,1.09c-0.58,0-1.12-0.29-1.55-0.78"/><ellipse class="st2" cx="18.55683" cy="22.86024" rx="1.2489" ry="1.50146"/><ellipse class="st2" cx="18.55683" cy="22.86024" rx="1.2489" ry="1.50146"/><path class="st1" d="M18.94776,18.83992c0,0-2.05235-0.68411-2.73646,1.75915"/><ellipse class="st2" cx="29.4438" cy="22.86024" rx="1.2489" ry="1.50146"/><ellipse class="st2" cx="29.4438" cy="22.86024" rx="1.2489" ry="1.50146"/><path class="st1" d="M29.05288,18.83992c0,0,2.05235-0.68411,2.73646,1.75915"/><path class="st1" d="M20.55194,29.3783c2.48328-2.01999,4.80408-1.98471,6.96616,0"/></g></g></svg>